<?xml version="1.0" standalone="no"?>
<!DOCTYPE svg PUBLIC "-//W3C//DTD SVG 20010904//EN"
 "http://www.w3.org/TR/2001/REC-SVG-20010904/DTD/svg10.dtd">
<svg version="1.0" xmlns="http://www.w3.org/2000/svg"
 width="546.000000pt" height="546.000000pt" viewBox="0 0 546.000000 546.000000"
 preserveAspectRatio="xMidYMid meet">
<metadata>
Created by potrace 1.11, written by Peter Selinger 2001-2013
</metadata>
<g transform="translate(0.000000,546.000000) scale(0.100000,-0.100000)"
fill="#000000" stroke="none">
<path d="M4178 5366 c-119 -49 -197 -124 -312 -301 -93 -145 -95 -146 -105
-172 -10 -21 -10 -21 -140 23 -131 45 -299 86 -400 99 -30 4 -63 8 -74 11 -42
8 -188 15 -295 15 -156 0 -271 -13 -436 -47 -67 -14 -71 -14 -131 11 -102 40
-181 55 -285 51 -83 -2 -103 -7 -155 -33 -103 -53 -174 -139 -221 -267 -24
-66 -24 -67 -24 -94 0 -10 -29 -39 -68 -69 -113 -86 -133 -103 -262 -233 -69
-69 -155 -163 -191 -210 -70 -90 -151 -205 -162 -230 -4 -8 -21 -37 -38 -65
-134 -221 -263 -586 -299 -848 -18 -126 -19 -132 -19 -139 -1 -4 -34 8 -74 27
-90 43 -259 106 -252 94 3 -4 61 -48 128 -96 67 -48 127 -91 132 -95 6 -4 21
-16 34 -27 24 -17 25 -24 27 -142 2 -155 21 -325 48 -436 4 -13 8 -31 10 -40
74 -322 260 -687 479 -942 65 -75 264 -269 327 -317 170 -133 388 -259 550
-319 74 -28 78 -31 300 -255 243 -245 279 -272 321 -234 23 21 21 48 -20 256
l-17 86 51 -6 c27 -4 133 -6 235 -6 l185 0 25 -49 c50 -100 141 -167 225 -166
79 0 175 51 197 104 16 40 26 46 73 39 83 -13 95 -11 139 16 32 20 51 43 67
78 l23 50 27 -20 c33 -25 94 -26 142 -3 62 29 97 131 74 215 -8 30 -6 36 14
53 23 18 23 18 41 -5 10 -13 18 -28 18 -34 0 -18 94 -111 130 -129 51 -26 120
-24 163 5 42 29 71 86 65 129 -4 27 -3 29 15 19 31 -16 130 -5 163 19 16 12
43 48 59 80 l30 58 55 0 c91 0 179 67 210 159 31 94 -26 247 -136 365 -36 38
-36 35 16 116 86 134 166 305 220 465 43 128 42 124 69 260 38 188 46 268 45
485 -1 254 -22 401 -93 645 -84 291 -275 638 -476 864 -15 18 -23 36 -20 45
13 33 34 121 51 217 22 120 25 403 5 474 -7 25 -15 53 -17 64 -15 79 -75 203
-126 261 -83 94 -216 122 -340 71z"/>
</g>
</svg>
